<svg xmlns="http://www.w3.org/2000/svg" enable-background="new 0 0 66 66" viewBox="0 0 66 66"><path fill="#E6E6E8" d="M54.6,31.6c0,0.4,0,0.7,0,1.1C54,45.1,44.2,55,32,55.9c-0.6,0-1.2,0.1-1.7,0.1c-0.2,0-0.3,0-0.5,0
			C16.5,55.7,5.9,44.9,5.9,31.6c0-13.4,10.9-24.3,24.3-24.3c2.7,0,5.3,0.4,7.7,1.3C47.6,11.8,54.6,20.9,54.6,31.6z"/><path fill="#036F9F" d="M44.5,11.9c-0.1,0-0.1-0.1-0.2-0.1c-0.5-0.3-1-0.7-1.5-1c0,0,0,0,0,0l0,0c-1.5-0.9-3.1-1.7-4.8-2.2
			c0,0.1,0,0.2,0,0.3c0.1,0.3,0.2,0.7,0.3,1c0.5-0.1,1,0,1.4,0.3c0.2,0.2,0.4,0.4,0.6,0.6c-0.2,0-0.3,0-0.5,0c-0.1,0-0.1,0-0.2,0.1
			c0,0-0.1,0.1-0.1,0.1c-0.1,0-0.1,0-0.2,0c-0.2,0-0.4,0.1-0.6,0.3c-0.3,0.2-0.7,0.4-1,0.7c0-0.2,0.1-0.5,0.3-0.7
			c-0.5-0.2-1-0.1-1.5,0c-0.4,0-0.8,0.1-1.2,0.2c-0.1,0-0.3,0-0.4,0.1c-0.1,0.1-0.2,0.2-0.3,0.2c-0.1,0-0.3,0-0.4,0.1
			c-0.1,0-0.3,0.1-0.3,0.3c0,0.1,0,0.2,0.1,0.3c0,0.1,0,0.3-0.1,0.3c-0.1,0-0.2-0.1-0.3-0.2c-0.2-0.2-0.5-0.3-0.8-0.2
			c-0.6,0-1.1,0.1-1.7,0.1c-0.1,0-0.2,0-0.4,0c-0.3,0-0.7,0.1-1,0.1c-0.4,0-0.8,0.1-1.2,0.2c0.1,0.4,0.3,0.8,0.6,1.1
			c0.1,0.1,0.3,0.4,0.2,0.5c-0.1,0.1-0.2,0-0.3,0c-0.1-0.1-0.1-0.2-0.2-0.2c-0.1,0-0.2-0.1-0.3-0.1c-0.3-0.2-0.3-0.6-0.8-0.4
			c0-0.1,0-0.2,0-0.3c-0.6,0.1-1.1,0.2-1.7,0.4c-0.2,0-0.4,0.1-0.4,0.3c-0.1,0.2,0.1,0.5,0.4,0.6c0.3,0,0.5-0.1,0.8-0.2
			c0.1,0.1,0,0.3-0.1,0.3c0,0.3,0.4,0.4,0.3,0.6c-0.1,0.2-0.4,0-0.6,0c-0.1,0-0.2,0.2-0.2,0.3c0,0.1,0.1,0.3,0.2,0.4
			c-0.4-0.2-0.8-0.4-1.1-0.7c-0.1-0.1-0.3-0.3-0.4-0.3c-0.2-0.1-0.4-0.1-0.5,0c0-0.1,0-0.3,0.1-0.4c-0.6,0-1.1-0.1-1.7-0.1
			c-0.2,0-0.4,0-0.4-0.2c-0.1-0.1,0-0.3-0.1-0.4c-0.1-0.1-0.2-0.1-0.3-0.1c-0.3-0.1-0.2-0.6,0-0.8c0.1-0.1,0.2-0.2,0.2-0.3
			c0-0.1-0.2-0.1-0.3-0.2c-1.3-0.2-2.6,0.1-3.6,1c0-0.2-0.3-0.2-0.5-0.2c-0.2,0-0.4,0-0.6,0.1c-0.2,0.1-0.4,0.3-0.4,0.5
			c0,0.1,0,0.3,0,0.4c-0.1,0.2-0.5,0.2-0.7,0.2c-0.4,0-0.7,0.1-1.1,0.2c-0.9,0.4-1.9,1.1-2.2,2.1c0,0.1-0.1,0.2-0.1,0.3
			C12.5,17,12.4,17,12.3,17c-0.7,0.2-1.4,0.4-2.1,0.7c-0.1,0-0.2,0-0.2,0.1c0.1,0,0.1,0,0.2,0c0.3,0,0.6,0,0.9,0.1
			c0.8,0.1,1.8,0,2.3-0.6c0.1-0.2,0.2-0.4,0.4-0.3c0.1,0,0.1,0,0.1,0.1c0.1,0.1,0.3,0.2,0.4,0.3c0.2,0,0.3-0.1,0.5-0.1
			c0.4,0.4,0.7,1,0.5,1.5c-0.1,0.2-0.3,0.4-0.6,0.5c0.4,0.7,0,1.5-0.3,2.3c-0.2,0.4-0.5,0.7-0.6,1.2c0,0.1,0,0.2,0,0.3
			c-0.1,0.4-0.4,0.6-0.6,1c-0.1,0.4,0,0.8,0.1,1.1c0.2,0.3,0.3,0.7,0.3,1.1c0,0.1,0,0.1-0.1,0.1c0,0-0.1,0-0.2,0
			c-0.1,0-0.4,0-0.4,0.1c0,0.1,0,0.1,0,0.2c0,0.2-0.2,0.3-0.3,0.5c-0.1,0.2-0.1,0.4-0.3,0.6c-0.1,0.1-0.2,0.1-0.3,0.2
			S12,28,11.9,28.1c-0.3,0.5-0.5,1-0.8,1.4c-0.1,0.2-0.2,0.3-0.3,0.5c-0.2,0.5-0.3,1-0.6,1.5c-0.3,0.4-0.5,0.8-0.7,1.2
			c-0.1,0.1-0.2,0.3-0.3,0.4c-0.1,0.2-0.1,0.4-0.1,0.6c0,0.7-0.1,1.5,0.2,2.2c0.2,0.5,0.5,0.9,0.7,1.4c0.2,0.5,0.4,1,0.4,1.6
			c0,0.7-0.1,1.4,0.1,2c0.1,0.2,0.2,0.4,0.3,0.6c0,0.2,0,0.5-0.2,0.5c0,0-0.1,0-0.1,0.1c-0.2,0.1-0.1,0.4,0,0.5
			c0.2,0.1,0.4,0.2,0.5,0.4c0.2,0.3,0.1,0.8,0.1,1.2c0,0.4,0.4,0.8,0.6,1.2c0.2,0.4,0.4,0.8,0.5,1.2c0.3-0.4,0.3-1.1-0.1-1.5
			c-0.1-0.1-0.2-0.1-0.2-0.2c0-0.1,0-0.2,0-0.3c0.2-0.5,0.2-1.2-0.1-1.6c-0.1-0.1-0.1-0.2-0.2-0.3c-0.1-0.2,0-0.5-0.1-0.8
			c0-0.6-0.6-1.1-0.6-1.7c0-0.5,0.3-0.9,0.6-1.3c0,0.5,0.4,0.8,0.6,1.3c0.1,0.2,0.1,0.3,0.1,0.5c0.2,1.5,0.7,3,1.5,4.3
			c0.3,0.5,0.6,0.9,0.8,1.5c0.2,0.7,0.3,1.5,0,2.2c-0.1,0.1-0.1,0.3-0.1,0.4c0,0.2,0.1,0.3,0.2,0.5c0.5,0.6,1.1,1.1,1.6,1.6
			c0.6,0.5,1.2,1,1.9,1.4c0.5,0.4,1.1,0.8,1.7,1c0.2,0.1,0.4,0.1,0.6,0.1c0.3,0,0.6-0.2,0.9-0.2c0.3,0,0.5,0.2,0.7,0.3
			c0.5,0.3,0.9,0.6,1.3,1.1c0.1,0.1,0.1,0.2,0.2,0.3c0.2,0.2,0.4,0.3,0.7,0.4c0.1,0,0.1,0.1,0.2,0.1h0c0.7,0.3,1.4,0.6,2.1,0.4
			c0.1,0,0.2,0,0.2-0.1c0,0,0,0.1,0,0.1c0.9,0.1,1.9,0.2,2.8,0.2h0.3c0-0.1,0-0.2,0.1-0.3c0-0.2,0.1-0.3,0.1-0.5
			c0-0.6-0.6-1.1-1.2-1.3c-0.9-0.3-1.9-0.2-2.8-0.2c0.1-0.5,0.2-1.1,0.4-1.6c0.1-0.3,0.2-0.6,0.3-0.8c0.1-0.3,0.2-0.6,0.4-0.8
			c0.2-0.3,0.7-0.6,0.6-1C27.9,49,27.4,49,27.1,49c-0.6,0-1.2,0-1.7,0.3c-0.4,0.2-0.6,0.6-0.7,1c-0.1,0.2-0.1,0.5-0.2,0.7
			c-0.1,0.2-0.4,0.3-0.6,0.1c-0.2-0.2-0.6-0.3-0.8-0.2c-0.3,0.1-0.5,0.2-0.8,0.2c-0.2,0-0.4-0.2-0.5-0.3c-0.7-0.7-1.2-1.6-1.3-2.6
			c0-0.1,0-0.2,0-0.3c0-0.1,0.1-0.2,0.1-0.3c0.2-0.4-0.2-0.9-0.1-1.4c0-0.6,0.6-1,0.6-1.6c0-0.2,0-0.4,0-0.6c0-0.1,0.1-0.2,0.2-0.3
			c0.3-0.3,0.7-0.5,1.1-0.6c0.1,0,0.2,0,0.3-0.1c0.1-0.1,0.1-0.2,0.3-0.3c0.2-0.2,0.6-0.1,0.9-0.2c0.1,0,0.3-0.1,0.4-0.1
			c0.6-0.1,1,0.8,1.6,0.8c0.3,0,0.6-0.2,0.9-0.4c0,0,0.1-0.1,0.1-0.1c0-0.1-0.1-0.1-0.1-0.2c0,0,0.1-0.1,0.1-0.1
			c0.7-0.2,1.5-0.2,2.2,0.1c0.3,0.1,0.6,0.3,0.9,0.2c0.2,0,0.3-0.1,0.5-0.1c0.2,0,0.5,0.2,0.6,0.4c0.1,0.2,0.1,0.5,0.1,0.8
			c0.1,0.6,0.2,1.1,0.4,1.7c0.1,0.4,0.3,0.7,0.6,0.9c0.3,0.2,0.8,0,0.9-0.4c0-0.2-0.2-0.5-0.2-0.7c0-0.2,0.1-0.3,0.1-0.5
			c0.1-0.6-0.3-1.1-0.5-1.6c-0.2-0.6-0.1-1.4,0.3-1.9c0.3-0.4,0.8-0.7,1.3-1c1-0.5,1.9-1.2,2.8-1.8c-0.2-0.6-0.2-1.3,0.1-1.9
			c0.1-0.1,0.1-0.2,0.1-0.4c0-0.2,0-0.4,0.1-0.6c0.1-0.1,0.3-0.2,0.4-0.3c0.1-0.1,0.1-0.4,0.2-0.5c0.1-0.4,0.6-0.5,1-0.5
			c0.4,0,0.8,0,1.1-0.1c0.1,0,0.1-0.1,0.2-0.1c0-0.1,0-0.3-0.1-0.3c-0.1-0.1-0.2-0.1-0.3-0.2c-0.2-0.2,0-0.6,0.3-0.8
			c0.3-0.1,0.6-0.2,0.9-0.3c0.2-0.1,0.3-0.2,0.5-0.4c0.4-0.3,0.9-0.6,1.3-0.8c0.1-0.1,0.3-0.1,0.5-0.1c-0.2,0.2-0.4,0.3-0.7,0.4
			c-0.2,0.1-0.5,0.4-0.4,0.6c0,0.3,0.5,0.4,0.8,0.3c0.3-0.1,0.5-0.4,0.7-0.6c0.2-0.2,0.4-0.4,0.6-0.5c0.2-0.1,0.5-0.2,0.8-0.3
			c0.2-0.1,0.5-0.4,0.4-0.7c-0.5,0.2-1.1,0.4-1.6,0.4c-0.5-0.4-1-0.8-1.5-1.2c0.1-0.2,0.3-0.3,0.5-0.4c0.1-0.2-0.1-0.5-0.3-0.5
			c-0.2-0.1-0.4,0-0.7,0.1c-0.5,0.1-1,0.3-1.5,0.5c-0.1-0.1,0-0.4,0.2-0.4c0.2,0,0.4,0,0.5-0.1c0.1-0.1,0.1-0.2,0.1-0.3
			c0.1-0.3,0.5-0.5,0.8-0.6c0.3-0.1,0.7,0,1.1,0c1.1,0,2.1-0.3,3-0.9c-0.1,0.7-0.3,1.5-0.4,2.2c0,0.2,0,0.4,0.1,0.5
			c0.2,0.2,0.4,0.1,0.7,0c0.4-0.1,0.8-0.2,1.2-0.1c-0.1,0.2,0,0.4,0.3,0.4c0.2,0,0.4-0.1,0.6-0.1c0.3,0,0.6,0,0.7-0.2
			c0.1-0.2-0.1-0.5-0.4-0.6c-0.3-0.1-0.6-0.2-0.7-0.5c0-0.1,0-0.2,0-0.3c-0.1-0.1-0.2-0.2-0.4-0.2c-0.2,0-0.3,0.1-0.5,0.1
			c-0.3,0-0.6-0.3-0.6-0.6c0-0.3,0.3-0.7,0.1-0.9c-0.1-0.1-0.2-0.1-0.2-0.2c-0.2-0.2-0.1-0.5-0.2-0.7c-0.2-0.2-0.7,0-0.9-0.3
			c-0.1-0.1-0.1-0.3-0.2-0.4c-0.1-0.1-0.2-0.1-0.3-0.1c-0.5,0-0.9-0.3-1.2-0.6c-0.3,0-0.7-0.3-0.7-0.6c0-0.1,0-0.2-0.1-0.4
			c0-0.1-0.1-0.1-0.2-0.2c-0.4-0.4-0.7-0.8-1.1-1.2c-0.1-0.1-0.3-0.3-0.4-0.1c-0.1,0.1-0.1,0.2-0.1,0.2c0,0.4-0.3,0.7-0.6,0.8
			c-0.3,0-0.6-0.1-0.8-0.2c0.1-0.6-0.4-1.1-0.9-1.3c-0.7-0.4-1.4-0.6-2.2-0.6c-0.1,0-0.3,0-0.4,0.1c-0.1,0.1-0.1,0.3-0.1,0.5
			c0,0.3,0,0.7-0.2,1c-0.1,0.2-0.2,0.3-0.2,0.5c0,0.2,0.1,0.4,0.3,0.4c0.2,0.2,0.3,0.5,0.4,0.8c0.1,0.3,0,0.6-0.2,0.8
			c-0.3,0.3-1,0.2-1.1,0.6c0,0.1,0,0.3,0.1,0.4c0.1,0.3,0.2,0.6,0.2,0.9c0,0.3-0.2,0.6-0.5,0.7c-0.5,0.1-0.9-0.4-1-0.9
			c-0.1-0.5,0-1-0.1-1.5c-1.5,0-2.6-1.5-4.1-1.5c0.3-0.3,0.2-0.9-0.1-1.1c-0.1,0-0.2,0-0.3,0c0-0.7,0.5-1.3,1.2-1.6
			c0.2-0.1,0.4-0.1,0.6-0.2c0.2-0.1,0.4-0.2,0.6-0.3c0.6-0.4,1.2-0.7,1.7-1.1c0.2,0.3-0.1,0.8,0.2,1.1c0.4,0.3,1-0.5,1.4-0.3
			c0.1,0.1,0.2,0.2,0.3,0.3c0.3,0.1,0.5-0.3,0.3-0.6c-0.2-0.2-0.5-0.3-0.8-0.3c-0.1-0.2,0-0.5,0.2-0.7c0.2-0.2,0.5-0.4,0.5-0.7
			c0-0.1,0-0.2-0.1-0.3c0-0.4,0.5-0.7,1-0.6c0.4,0.1,0.7,0.4,1,0.8c0.2,0.2,0.4,0.5,0.2,0.7c-0.1,0.2-0.3,0.2-0.3,0.4
			c0,0.1,0.1,0.3,0,0.4c-0.1,0.1-0.2,0.1-0.3,0.2c-0.1,0-0.2,0.2-0.1,0.3c0.5-0.3,1.1,0.5,1.7,0.3c0,0.3,0.3,0.5,0.5,0.6
			c0.5,0.2,1,0.3,1.5,0.4c-0.3-0.2-0.6-0.5-0.9-0.7c0.4-0.1,0.8,0,1.1,0.2c0.1,0.1,0.3,0.2,0.4,0.1c0.2-0.1,0.1-0.4,0-0.6
			c-0.4-0.5-0.9-0.9-1.5-1.1c0.4-0.3,1,0,1.4,0.4c-0.1-0.4,0.3-0.7,0.7-0.9c-1.1-0.2-2.2-0.8-3-1.6c0-0.3-0.3-0.6-0.6-0.7
			c-0.7-0.3-1.3-0.6-2-0.9c-0.1-0.3,0.1-0.7,0.4-1c0.3-0.2,0.7-0.3,1-0.4c0.3-0.1,0.7-0.1,1,0.1c0.1,0.1,0.2,0.2,0.3,0.3
			c0.2,0.2,0.6,0,0.9,0c0.3,0,0.6,0.2,0.9,0.3c0.7,0.4,1.4,0.8,2.1,1.3c0,0.1,0.1,0.2,0.2,0.3c0.1,0,0.3,0,0.4,0
			c0.4,0,0.7,0.5,0.7,0.9c0,0.2-0.2,0.4-0.1,0.6c0,0.2,0.1,0.3,0.2,0.5c1.3,1.6,3.1,2.7,5,3.1c0,0.1,0.1,0.3,0.1,0.4
			c0.1,0.5,0.4,0.9,0.4,1.4c0,0.3-0.1,0.7-0.2,1c-0.1,0.7-0.1,1.3-0.1,2c0,0.1,0,0.3,0,0.4c0,0.1,0.1,0.3,0.2,0.4
			c0.4,0.6,0.6,1.4,0.6,2.1c0,0.2,0,0.4,0,0.6c0.1,0.4,0.4,0.6,0.6,1c0.2,0.3,0.4,0.7,0.5,1.1c0,0.1,0.1,0.2,0.2,0.3
			c0.1,0.1,0.3,0,0.4,0c0.2,0,0.3,0.2,0.3,0.4s0,0.4,0.1,0.5c0.1,0.2,0.3,0.3,0.4,0.1c0.1,0,0.1-0.1,0.1-0.2
			c0.2-0.3,0.6-0.4,0.8-0.7c0.2-0.3,0.3-0.8,0.6-0.9c0.2,0.4,0.4,0.8,0.4,1.2l-0.1-0.1c0.1,0.3,0.1,0.6,0.2,0.9c0,0,0,0.1,0,0.1
			c0-0.4,0-0.7,0-1.1C54.6,23.5,50.6,16.3,44.5,11.9z"/><g opacity=".15"><path fill="#465C6A" d="M5.9 31.6c0 13.3 10.6 24.1 23.9 24.3.2 0 .3 0 .5 0V31.6H5.9zM38 8.5c-2.4-.8-5-1.3-7.7-1.3v24.3h24.3C54.6 20.9 47.6 11.8 38 8.5z"/></g><g><rect width="1.7" height="4.7" x="50.5" y="31.6" fill="#283A48"/><rect width="1.7" height="4.7" x="39.5" y="31.6" fill="#283A48"/><path fill="#D5B79F" d="M61,35.2H30.6c-2.2,0-4,1.8-4,4V61c0,2.2,1.8,4,4,4H61c2.2,0,4-1.8,4-4V39.2C65,37,63.2,35.2,61,35.2z"/><path fill="#C6A28A" d="M65 50.1V39.2c0-2.2-1.8-4-4-4H45.8v14.9H65zM26.6 50.1V61c0 2.2 1.8 4 4 4h15.2V50.1H26.6z"/><path fill="#D5B79F" d="M65,39.2V42c-0.5,0.1-0.9,0.2-1.4,0.2c-3.1,0-5.6-2.5-5.6-5.6c0-0.4,0-0.9,0.2-1.3H61
					C63.2,35.2,65,37,65,39.2z"/><path fill="#C6A28A" d="M33.7,36.5c0,3.1-2.5,5.6-5.6,5.6c-0.5,0-1-0.1-1.4-0.2v-2.8c0-2.2,1.8-4,4-4h2.9
					C33.7,35.7,33.7,36.1,33.7,36.5z"/><g><path fill="#C6A28A" d="M65,58.2V61c0,2.2-1.8,4-4,4h-2.9c-0.1-0.4-0.2-0.9-0.2-1.3c0-3.1,2.5-5.6,5.6-5.6
					C64.1,58.1,64.5,58.1,65,58.2z"/><path fill="#D5B79F" d="M33.7,63.7c0,0.4,0,0.9-0.2,1.3h-2.9c-2.2,0-4-1.8-4-4v-2.8c0.5-0.1,0.9-0.2,1.4-0.2
					C31.2,58.1,33.7,60.6,33.7,63.7z"/></g><g><rect width="2.8" height="29.8" x="53.2" y="35.2" fill="#FFF7D7"/><rect width="2.8" height="29.8" x="35.7" y="35.2" fill="#FFF7D7"/></g><path fill="#3B4C56" d="M52.4,29.9H39.2c-0.8,0-1.4,0.6-1.4,1.4l0,0c0,0.8,0.6,1.4,1.4,1.4h13.2c0.8,0,1.4-0.6,1.4-1.4l0,0
			C53.8,30.6,53.2,29.9,52.4,29.9z"/></g><g><path fill="#D95239" d="M12.9,1C6.3,1,1,6.3,1,12.9c0,6.6,11.9,23,11.9,23s11.9-16.4,11.9-23C24.7,6.3,19.4,1,12.9,1z"/><circle cx="12.9" cy="12.7" r="7.3" fill="#FFF"/><path fill="#E8664A" d="M12.9,1v4.3c4.1,0,7.3,3.3,7.3,7.3c0,4.1-3.3,7.3-7.3,7.3v15.9c0,0,11.9-16.4,11.9-23
				C24.7,6.3,19.4,1,12.9,1z"/><path fill="#E6E6E8" d="M5.5,12.7c0,4.1,3.3,7.3,7.3,7.3l0,0V5.3l0,0C8.8,5.3,5.5,8.6,5.5,12.7z"/></g></svg>